<?xml version="1.0" encoding="UTF-8"?>
<svg id="Layer_1" data-name="Layer 1" xmlns="http://www.w3.org/2000/svg" version="1.1" viewBox="0 0 299.3 304.8">
  <defs>
    <style>
      .cls-1 {
        fill: #2a353f;
        stroke-width: 0px;
      }
    </style>
  </defs>
  <path class="cls-1" d="M74.3,134.5c-4.3-12.1-8.8-23.6-12.6-35.4-3.6-11.3-5.6-23-5.2-34.9.6-20.5,7.8-38,24.4-50.9,9-7,19.5-10.8,30.7-12.3,11.4-1.5,22.8-1.7,33.8,2.4,17.3,6.4,25.5,20.3,24.7,38.1-.7,15.1-7.9,27.3-17.4,38.4-12.2,14.2-27,25.4-42.3,36-2.2,1.6-4.5,3.1-7,4.9,24.7,50.7,59.2,93.6,101.3,131.2,2.6-3.8,5.2-7.1,7.4-10.5,8.7-13.5,15.1-27.9,16.6-44,1.8-20.1-2.6-38.3-19.1-51.8-7.9-6.4-17.2-9.8-27.1-11.2-5.2-.7-10.4-.9-15.7-1.1-5.1-.2-10.1,0-15.6,0,0-1.1-.2-2.1,0-3,.2-.6.9-1.3,1.6-1.6.5-.3,1.3,0,2,0h141c2.7,0,3.8,1.5,3.4,4.6h-103.5v.4c2.3,1.1,4.7,2.1,7.1,3.3,19.3,9.8,29,25.9,30.7,47,1.8,22.7-6.2,42.7-18.2,61.4-2.1,3.2-4.4,6.2-6.8,9.6,2.1,1.6,4.1,3.3,6.2,4.9,12,9.1,24.2,17.7,38.6,22.7,12.1,4.2,23.1,2.7,32.8-6,.4-.3.8-.6,1.3-1,.7.9,1.4,1.7,2.5,3-6.5,5.8-12.7,11.9-19.5,17.2-12.6,9.7-26.7,11.1-41.6,6.2-14.7-4.8-27.4-13.1-39.6-22.4-1.1-.9-2.2-1.7-3.5-2.7-.6.4-1.3.8-1.9,1.2-19.9,14.2-42.1,22.3-66.2,25.3-20.4,2.5-40.7,1.8-60.7-3.6-13.6-3.7-26.1-9.7-36.4-19.5C5.8,266.7-.5,249.6,0,230c.5-19.9,8.8-36.6,21.4-51.5,12.8-15.1,28.3-27.2,44.6-38.4,2.9-2,5.8-3.9,8.3-5.6h0ZM181.5,274c-44-38.5-78.6-83.9-104.9-135.8-.7.5-1.4.8-1.9,1.3-5.8,4.8-11.9,9.2-17.3,14.3-22.5,21.2-33,46.8-27.6,77.9,5.3,30.6,23.1,50.8,52.6,60,22.1,6.9,44.4,6,66.4-.8,11.8-3.6,22.5-9.4,32.7-16.8ZM101.7,117.3c8-5.9,15.6-11.3,22.8-17,12.2-9.6,23.7-20,32.1-33.3,5.4-8.4,8.8-17.5,8.9-27.7,0-16.6-8.1-28.1-23.5-32.4-9.9-2.8-20-2.3-29.8.9-8.3,2.7-14.6,8-19.1,15.6-4.6,7.7-6.8,16.1-7.2,24.9-.8,17.6,3,34.4,8.8,50.8,2.1,5.8,4.5,11.6,6.9,18h0Z"/>
</svg>