<svg xmlns="http://www.w3.org/2000/svg" id="Layer_2" viewBox="0 0 506.68 243.84"><defs><style>.cls-1{fill:#3fd9ee}</style></defs><g id="comminicative_v2_copy"><circle cx="252.36" cy="121.12" r="18.72" class="cls-1"/><circle cx="152.08" cy="121.12" r="18.72" class="cls-1"/><circle cx="352.18" cy="120.7" r="18.72" class="cls-1"/><path d="M505.04 102.75C501.79 80.07 491.19 59 476.36 41.7c-14.57-16.98-34.34-29.5-55.61-36.25C408.42 1.55 395.38 0 382.48 0H122.63c-18.31.01-35.8 4.13-52.41 11.67-20.45 9.28-37.73 24.99-50.17 43.55C7.21 74.35.33 97.59.04 120.58c-.09 7.2 0 14.4 0 21.6v83.63c0 9.73 8.25 18 18 18h351.82c4.76 0 9.53.06 14.3 0h.62c45.97-.15 90.34-27.36 109.85-69.33 4.87-10.47 8.65-21.33 10.33-32.78.96-6.58 1.73-13.14 1.73-19.8 0-6.44-.73-12.78-1.64-19.16Zm-35.01 30.59c-1.2 7.45-3.2 14.74-5.96 21.76a107.25 107.25 0 0 1-11.23 19.2c-4.67 5.75-9.92 11-15.67 15.67-6 4.4-12.42 8.17-19.2 11.23-7.03 2.76-14.32 4.76-21.78 5.96-3.79.41-7.6.63-11.42.65H36.03v-77.9c0-6.5-.02-12.96.65-19.42 1.2-7.46 3.2-14.75 5.96-21.78 3.06-6.78 6.83-13.2 11.23-19.19 4.67-5.75 9.92-11 15.67-15.67 6-4.41 12.42-8.17 19.2-11.23a104.48 104.48 0 0 1 21.47-5.91c11.3-1.24 22.93-.69 34.26-.69H356.1c9.56 0 19.12-.03 28.67 0 3.82.01 7.62.23 11.41.65 7.46 1.2 14.75 3.2 21.79 5.96 6.78 3.07 13.2 6.83 19.2 11.23 5.75 4.67 11 9.92 15.67 15.67 4.41 6 8.17 12.42 11.23 19.2 2.76 7.03 4.76 14.31 5.96 21.76.82 7.61.82 15.26 0 22.87Z" class="cls-1"/></g></svg>