<svg xmlns="http://www.w3.org/2000/svg" data-name="Group 81" viewBox="0 0 120 55.923"><defs><clipPath id="a"><path fill="none" d="M0 0h120v55.923H0z" data-name="Rectangle 48"/></clipPath></defs><g clip-path="url(#a)" data-name="Group 80"><path fill="#3fd9ee" d="M119.814 25.019a28.758 28.758 0 0 0-3.559-11.01 28.762 28.762 0 0 0-7.535-8.42 27.9 27.9 0 0 0-37.663 3.984L65.4 16 60 22.133l-3.651-4.16c-2.569-2.928-5.122-5.87-7.707-8.783a27.869 27.869 0 0 0-37.364-3.646 30.251 30.251 0 0 0-6 6.082A27.724 27.724 0 0 0 .053 26.365a28.108 28.108 0 0 0 14.56 26.127 27.781 27.781 0 0 0 15.868 3.248 29.542 29.542 0 0 0 9.53-2.62 27.352 27.352 0 0 0 7.259-5.02c1.043-.993 1.97-2.1 2.921-3.178l4.836-5.494L60 33.783l.149.17 7.521 8.57c1.242 1.415 2.45 2.87 3.73 4.251l.053.061A27.927 27.927 0 0 0 113.39 46a28.825 28.825 0 0 0 5.439-10.009 27.014 27.014 0 0 0 .985-10.968M47.272 36.6c-1.379 1.566-2.746 3.143-4.136 4.7a23.968 23.968 0 0 1-2.781 2.639 24.709 24.709 0 0 1-4.541 2.661 24.554 24.554 0 0 1-5.147 1.407 24.914 24.914 0 0 1-5.453 0 24.485 24.485 0 0 1-5.146-1.407 24.608 24.608 0 0 1-4.5-2.631 24.772 24.772 0 0 1-3.668-3.662 24.634 24.634 0 0 1-2.631-4.5 24.478 24.478 0 0 1-1.406-5.146 24.879 24.879 0 0 1 0-5.451 24.476 24.476 0 0 1 1.406-5.146 24.618 24.618 0 0 1 2.631-4.5 24.773 24.773 0 0 1 3.668-3.664 24.619 24.619 0 0 1 4.5-2.631 24.487 24.487 0 0 1 5.146-1.406 24.915 24.915 0 0 1 5.452 0 24.547 24.547 0 0 1 5.145 1.407 24.685 24.685 0 0 1 4.434 2.582 40.754 40.754 0 0 1 4.842 4.948l6.559 7.474 3.233 3.684-7.607 8.642m64.859-5.892a24.489 24.489 0 0 1-1.406 5.146 24.616 24.616 0 0 1-2.631 4.5 24.782 24.782 0 0 1-3.663 3.663 24.608 24.608 0 0 1-4.5 2.631 24.476 24.476 0 0 1-5.146 1.406 24.914 24.914 0 0 1-5.453 0 24.57 24.57 0 0 1-5.142-1.405 24.673 24.673 0 0 1-4.459-2.6 25.193 25.193 0 0 1-2.831-2.664l-7.134-8.129-4.646-5.294 3.28-3.726 8.366-9.506a24.281 24.281 0 0 1 2.878-2.75 24.715 24.715 0 0 1 4.543-2.664 24.569 24.569 0 0 1 5.147-1.407 24.909 24.909 0 0 1 5.453 0 24.458 24.458 0 0 1 5.143 1.406 24.615 24.615 0 0 1 4.5 2.631 24.782 24.782 0 0 1 3.663 3.663 24.61 24.61 0 0 1 2.631 4.5 24.487 24.487 0 0 1 1.406 5.146 24.878 24.878 0 0 1 0 5.451" data-name="Path 72"/></g></svg>