<svg xmlns="http://www.w3.org/2000/svg" xml:space="preserve" viewBox="0 0 24 24"><g id="_icons"><path d="M14.6 4.6c-.9-.6-2.1-.8-3.1-.4-1.1.4-2.1.9-2.9 1.6L6.2 7.6H5c-1.7 0-3 1.3-3 3v2.9c0 1.7 1.3 3 3 3h1.2l2.3 1.8c.9.7 1.9 1.2 2.9 1.6.4.1.8.2 1.2.2.7 0 1.4-.2 2-.6.9-.6 1.4-1.6 1.4-2.7V7.3c0-1.1-.5-2.1-1.4-2.7zm-9.1 9.8H5c-.6 0-1-.4-1-1v-2.9c0-.6.4-1 1-1h.5v4.9zm8.5 2.3c0 .4-.2.8-.6 1-.4.3-.9.3-1.3.2-.9-.3-1.7-.8-2.4-1.3l-2.2-1.7V9.1l2.2-1.7c.7-.6 1.5-1 2.4-1.3.4-.2.9-.1 1.3.2.3.2.6.6.6 1v9.4zM21.4 12l.7-.7c.4-.4.4-1 0-1.4s-1-.4-1.4 0l-.7.7-.7-.7c-.4-.4-1-.4-1.4 0s-.4 1 0 1.4l.7.7-.7.7c-.4.4-.4 1 0 1.4.2.2.5.3.7.3s.5-.1.7-.3l.7-.7.7.7c.2.2.5.3.7.3s.5-.1.7-.3c.4-.4.4-1 0-1.4l-.7-.7z"/></g></svg>