<svg xmlns="http://www.w3.org/2000/svg" data-name="Layer 2" viewBox="0 0 629.64 231.99"><path d="m629.63 116-.57-4.25c-.76-2.71-2.13-5.06-4.11-7.06-3.13-2.87-6.98-4.69-11.31-4.69h-51.09c-.18-1.35-.38-2.7-.6-4.04a99.47 99.47 0 0 0-3.63-15.13c-1.99-6.11-4.49-12.11-7.39-17.84a99.882 99.882 0 0 0-7.82-12.97c-3.67-5.16-7.64-10.17-12.04-14.73-4.43-4.59-9.31-8.58-14.37-12.45-9.15-7.01-19.42-12.2-30.22-16.17a99.993 99.993 0 0 0-14.91-4.19C465.04 1.19 458.36.33 451.7.07c-5.4-.21-10.82.01-16.19.67-6.53.8-12.99 1.81-19.32 3.61-6.22 1.76-12.23 4.18-18.1 6.87-4.6 2.11-9.04 4.57-13.27 7.35-9.51 6.25-18.35 13.78-25.59 22.58-4.01 4.87-7.81 9.94-11.06 15.36-3.32 5.52-5.93 11.34-8.38 17.3-1.96 4.79-3.51 9.71-4.71 14.72-.35-.12-.7-.25-1.05-.36-2.34-.74-4.75-1.29-7.18-1.65-3.8-.56-7.6-1.1-11.45-1.07-3.83.03-7.67.57-11.45 1.18-3.13.51-6.22 1.37-9.22 2.46-.64-2.78-1.4-5.54-2.28-8.26-1.99-6.11-4.49-12.11-7.39-17.84a99.882 99.882 0 0 0-7.82-12.97c-3.67-5.16-7.64-10.17-12.04-14.73-4.43-4.59-9.31-8.58-14.37-12.45-9.15-7.01-19.42-12.2-30.22-16.17a99.993 99.993 0 0 0-14.91-4.19C199.17 1.19 192.49.33 185.83.07c-5.4-.21-10.82.01-16.19.67-6.53.8-12.99 1.81-19.32 3.61-6.22 1.76-12.23 4.18-18.1 6.87-4.6 2.11-9.04 4.57-13.27 7.35-9.51 6.25-18.35 13.78-25.59 22.58-4.01 4.87-7.81 9.94-11.06 15.36-3.32 5.52-5.93 11.34-8.38 17.3-3.45 8.4-5.61 17.22-6.84 26.2H24.12c-2.66 0-5.33-.02-7.99 0h-.12c-2.2-.08-4.26.38-6.16 1.38-1.98.65-3.7 1.75-5.15 3.31a12.071 12.071 0 0 0-3.31 5.15c-1 1.91-1.46 3.96-1.38 6.16l.57 4.25c.76 2.71 2.13 5.06 4.11 7.06 3.13 2.87 6.98 4.69 11.31 4.69h51.05c.54 4.01 1.26 8 2.21 11.92a99.62 99.62 0 0 0 4.84 14.77c2.45 5.9 5.06 11.67 8.38 17.14 3.29 5.43 7.13 10.54 11.19 15.42 3.24 3.89 6.78 7.54 10.57 10.91 8.53 7.56 18.04 14.14 28.45 18.84 5.85 2.64 11.82 5.04 18.01 6.76 6.38 1.78 12.91 2.8 19.48 3.56 11.96 1.4 24.13.5 35.91-1.89a98.885 98.885 0 0 0 15.01-4.29c5.96-2.23 11.86-4.79 17.42-7.89 5.59-3.11 10.7-6.83 15.75-10.75 4.01-3.11 7.79-6.5 11.29-10.17 4.34-4.55 8.28-9.54 11.91-14.67 2.94-4.16 5.56-8.55 7.83-13.12 5.18-10.42 9.1-21.52 10.87-33.05.62-4.05 1.14-8.09 1.44-12.16 1.97-1.34 4.04-2.53 6.19-3.56 2.55-.94 5.18-1.66 7.85-2.15 2.73-.23 5.46-.23 8.19 0 2.68.49 5.3 1.21 7.85 2.15 1.46.7 2.88 1.47 4.26 2.31.05.77.1 1.53.16 2.3.54 6.55 1.49 13.13 3.04 19.52a99.62 99.62 0 0 0 4.84 14.77c2.45 5.9 5.06 11.67 8.38 17.14 3.29 5.43 7.13 10.54 11.19 15.42 3.24 3.89 6.78 7.54 10.57 10.91 8.53 7.56 18.04 14.14 28.45 18.84 5.85 2.64 11.82 5.04 18.01 6.76 6.38 1.78 12.91 2.8 19.48 3.56 11.96 1.4 24.13.5 35.91-1.89a98.885 98.885 0 0 0 15.01-4.29c5.96-2.23 11.86-4.79 17.42-7.89 5.59-3.11 10.7-6.83 15.75-10.75 4.01-3.11 7.79-6.5 11.29-10.17 4.34-4.55 8.28-9.54 11.91-14.67 2.94-4.16 5.56-8.55 7.83-13.12 5.18-10.42 9.1-21.52 10.87-33.05.18-1.17.34-2.33.5-3.5h42.99c2.66 0 5.33.02 7.99 0h.12c2.2.08 4.26-.38 6.16-1.38 1.98-.65 3.7-1.75 5.15-3.31 1.56-1.45 2.66-3.17 3.31-5.15 1-1.91 1.46-3.96 1.38-6.16Zm-370.24 32.7a100.54 100.54 0 0 1-10.92 18.67 101.6 101.6 0 0 1-15.2 15.2c-5.82 4.3-12.08 7.96-18.67 10.92a100.99 100.99 0 0 1-21.37 5.85c-7.53.84-15.13.84-22.66 0a99.496 99.496 0 0 1-21.37-5.85 100.54 100.54 0 0 1-18.67-10.92 101.6 101.6 0 0 1-15.2-15.2c-4.3-5.82-7.96-12.08-10.92-18.67a100.99 100.99 0 0 1-5.85-21.37c-.84-7.53-.84-15.13 0-22.66a99.496 99.496 0 0 1 5.85-21.37c2.96-6.6 6.62-12.86 10.92-18.67a101.6 101.6 0 0 1 15.2-15.2c5.82-4.3 12.08-7.96 18.67-10.92a100.99 100.99 0 0 1 21.37-5.85c7.53-.84 15.13-.84 22.66 0a99.496 99.496 0 0 1 21.37 5.85c6.6 2.96 12.86 6.62 18.67 10.92a101.6 101.6 0 0 1 15.2 15.2c4.3 5.82 7.96 12.08 10.92 18.67 2.73 6.89 4.69 14.06 5.85 21.38.42 3.76.64 7.54.65 11.33 0 3.79-.23 7.57-.65 11.33a99.74 99.74 0 0 1-5.85 21.38Zm271.72-21.37a99.496 99.496 0 0 1-5.85 21.37 100.54 100.54 0 0 1-10.92 18.67 101.6 101.6 0 0 1-15.2 15.2c-5.82 4.3-12.08 7.96-18.67 10.92a100.99 100.99 0 0 1-21.37 5.85c-7.53.84-15.13.84-22.66 0a99.496 99.496 0 0 1-21.37-5.85 100.54 100.54 0 0 1-18.67-10.92 101.6 101.6 0 0 1-15.2-15.2c-4.3-5.82-7.96-12.08-10.92-18.67a100.99 100.99 0 0 1-5.85-21.37c-.27-2.39-.45-4.78-.55-7.17.58-1.61.89-3.32.81-5.07l-.57-4.25c-.05-.18-.11-.35-.16-.52.11-1.89.26-3.77.47-5.64a99.496 99.496 0 0 1 5.85-21.37c2.96-6.6 6.62-12.86 10.92-18.67a101.6 101.6 0 0 1 15.2-15.2c5.82-4.3 12.08-7.96 18.67-10.92a100.99 100.99 0 0 1 21.37-5.85c7.53-.84 15.13-.84 22.66 0a99.496 99.496 0 0 1 21.37 5.85c6.6 2.96 12.86 6.62 18.67 10.92a101.6 101.6 0 0 1 15.2 15.2c4.3 5.82 7.96 12.08 10.92 18.67a100.99 100.99 0 0 1 5.85 21.37c.42 3.76.64 7.54.65 11.33 0 3.79-.23 7.57-.65 11.33Z" data-name="tech geek copy" style="fill:#3fd9ee;stroke-width:0"/></svg>