<svg xmlns="http://www.w3.org/2000/svg" xml:space="preserve" viewBox="0 0 24 24"><g id="_icons"><path d="M3 13.4c0 1.7 1.3 3 3 3h1.2l2.3 1.8c.9.7 1.9 1.2 2.9 1.6.4.1.8.2 1.2.2.7 0 1.4-.2 2-.6.9-.6 1.4-1.6 1.4-2.7V7.3c0-1.1-.5-2-1.4-2.7-.9-.6-2.1-.8-3.1-.4-1.1.4-2.1.9-2.9 1.6L7.2 7.6H6c-1.7 0-3 1.3-3 3v2.8zm5.5-4.3 2.2-1.7c.7-.6 1.5-1 2.4-1.3.4-.2.9-.1 1.3.2.3.2.5.6.5 1v9.4c0 .4-.2.8-.6 1-.4.3-.9.3-1.3.2-.9-.3-1.7-.8-2.4-1.3l-2.2-1.7V9.1zM5 10.6c0-.6.4-1 1-1h.5v4.9H6c-.6 0-1-.4-1-1v-2.9zM19.7 9.3c-.4-.4-1-.4-1.4 0-.4.4-.4 1 0 1.4.3.3.5.8.5 1.3s-.2 1-.5 1.3c-.4.4-.4 1 0 1.4.2.2.4.3.7.3.3 0 .5-.1.7-.3.7-.7 1-1.6 1-2.7s-.3-2-1-2.7z"/></g></svg>